<?xml version="1.0" encoding="UTF-8"?>
<svg version="1.1" viewBox="0 0 1080 1080" width="1280" height="1280" xmlns="http://www.w3.org/2000/svg">
<path transform="translate(0)" d="m0 0h1080v1080h-1080z" fill="#FCFCFC"/>
<path transform="translate(546,175)" d="m0 0 4 1 9 19 5 8 19 38 8 17 9 16 11 23 13 26v2h2l11 23 1 4 77 11 40 6 43 6 27 4 9 1 2 4-2 12-1 1-5 27-9 48-5 24-3 16-3 18-2 10-7 36-2 10-5 26-6 31-2 12-3 13-9 48-5 28-5 4-38 19-17 9-32 16h-3v2l-21 10-7 4h-4v2l-19 9-8 5-7 3-19 9-16 9-21 10-4 1-23-12-17-9-17-8-14-8-19-9-6-4-10-5-8-3-5-3-28-15-30-15-25-13-15-8-4-16-6-35-2-10-4-23-7-36-3-19-4-19-3-15-1-9-2-10-6-34-3-14-4-24-6-31-2-9-2-13-5-28-1-2-1-15 2-2 28-4 59-8 35-5 29-4 39-5 5-2 8-16 7-15 4-7 3-7 24-50 11-23 9-19 7-14 4-9 8-16z" fill="#D1D3D5"/>
<path transform="translate(748,469)" d="m0 0 2 1v76l-1 186-8 5-23 12-16 8-20 11-32 16-56 29-15 8-16 8-13 7-6-2-40-20-19-10-17-9-16-8-19-10-16-8-17-9-23-11-19-10-8-5-1-22-1-98-1-70v-74l5 2 6 7 2 1v2l4 2 2 4 4 2 13 13 8 7 12 12 23-3 4-1 39-3h51l4 5 4 6v2h40l5-11 1-1 9-1h44l31 2 26 3h10l9-8 20-20 8-7 5-5h2l2-4 4-2v-2z" fill="#234B86"/>
<path transform="translate(546,175)" d="m0 0 4 1 9 19 5 8 19 38 8 17 9 16 11 23 13 26v2h2l11 23 1 4 77 11 40 6 43 6 31 5 5 3-1 4-1 3-6 2v2l-7 6-5 5-5 6-8 7-7 8-8 7-15 15-1 2h-2v2l-8 7-7 7-4 2-8-3-37-6-31-1-22 1-16 2-18 5-9 3-1-1-2-20-4-12-8-13-9-8-10-6-10-4-4-1h-21l-11 3-10 5-9 7-7 8-6 11-3 8-1 7v16l-3 1-15-6-18-4-26-2h-15l-20 1-29 4-18 4-5-1-21-21v-2l-4-2-6-6v-3l-4-1-5-6-5-4-5-5v-2l-4-2-1-4-5-2-11-12v-2l-4-2-5-6 2-4 28-4 59-8 35-5 29-4 39-5 5-2 8-16 7-15 4-7 3-7 24-50 11-23 9-19 7-14 4-9 8-16z" fill="#E98632"/>
<path transform="translate(499,528)" d="m0 0h16l5 9 7 8 13 5h17l10-4 6-5 6-10 1-3h31l54 5 23 3 7 1 2 3 2 9v8l4 25 1 3 1 11 3 12 2 16 3 16 6 38 1 2 1 13 3 12 1 11-1 1h-5l-19-10-12-6v-2l-5-1-11-5v-2l-5-1-6-3-9-5-10-5-6-4-7-3-21-11-32-16-15-8-12-6-9 3-15 8-16 8-10 6h-3v2l-7 3-21 11-2 2-7 3-19 10-4 3-7 3-19 10-8 4h-2v2l-14 7-5 2-5 4h-3l-1-2v-9l4-21 8-51 6-32 3-19 4-21 2-11 2-16 1-1 38-5 24-2z" fill="#E98632"/>
<path transform="translate(539,403)" d="m0 0h21l10 3 11 6 9 7 7 8 7 14 2 7 2 20 9-3 18-5 16-2 29-1 24 1 37 6 3 1v2l3 1-8 7-11 11h-2l-2 4-8 7-14 14-8 7-2 3-16-1-30-3-19-1h-44l-9 1-6 12-40-1-7-11-1-1h-51l-39 3-14 2h-12l-5-4-30-30-7-6v-2l-4-2-9-9 3-3 21-4 22-3 20-1h17l25 2 17 4 15 6h2v-16l2-10 4-9 6-10 9-9 13-8 9-3z" fill="#FBFBFB"/>
<path transform="translate(499,528)" d="m0 0h16l5 9 7 8 13 5h17l10-4 6-5 6-10 1-3h31l54 5 23 3 7 1 2 3 2 9-1 5-21-2-19-2-50-3h-17l-7 9-5 4-5 1-1 3-13 4-11 1-1 1h-44l1 3 5 2 1 1v38l-1 2-6 1v3h4v2l2 1-3 3-5-1v-2l-2 4-8 2h-8l-9-4v-2h-9v-2h8l14-3 6-2 1-14 3-2h3v-3h-26v3l6 1 1 1v14l-6 2-8-1-4-3-3-6-1-6v-15l4-11 5-3h11l5 5 4 8v2h4l-1-17-6 1-6-2h-13l-9 3-4 3h-2l-2 5-3 7v15l4 9 5 4v2l9 3-1 10-1 1-11-1v-3l4-1h-4l-4-1v2l-10 1h-10l-5-2-7 1v-2l-2 1 1 3-5 3-17 1-1-4h-2l-1 4-1 14h-1v-8h-3l2-12 4-23 3-19 4-21 2-11 2-16 1-1 38-5 24-2z" fill="#E98632"/>
<path transform="translate(539,403)" d="m0 0h21l10 3 11 6 9 7 7 8 7 14 2 7 2 22-16 9-8 6-4 5-7 6h-3v2h-2l-2 4-9 13-7 11-4-1v-2h-2l-6-11-8-10-11-12-11-9-12-6v-2l-5-2v-18l2-10 4-9 6-10 9-9 13-8 9-3z" fill="#FBFBFB"/>
<path transform="translate(467,569)" d="m0 0h13l7 2 5-1 1 1v17h-4l-5-10v-2l-4-2h-11l-5 2-1 4-2 7v15l3 12 4 2 8 1 6-1-1-14-6-2v-3h26v3l-5 2-1 14-10 4-11 2-8-1v2h9l3 3 6 2h8l8-1 2-6 2 4 4-1 2-1 7 3v2l5-2v2h2l1-3 3 2v2l-3 1v5l-5 5-1 3-10 5-10 6h-3v2l-7 3-21 11-2 2-7 3-19 10-4 3-7 3-19 10-8 4h-2v2l-14 7-5 2-5 4h-3l-1-2v-9l4-21 7-43 1-5h3l2-8 1-2h2l1 3h8l12-2v-4l1-2 2 1v2l9-2 3 2h20v-2l8-1v2l2 1-6 1v1l11 1 1-10-8-3v-2l-4-2-4-5-2-6v-15l3-7 3-5 10-6z" fill="#E56833"/>
<path transform="translate(599,622)" d="m0 0 1 2 9 1 6-1 2 1v3h18l5 4h11l4-2 1-2-7-2v-2l10-1 6 2 2 3 6-1 1 1 16 1 2-3 5-1 4 2 2 3 4 2 2 5v3h2v7l3 9 6 36 2 3 3 19-1 3h-5l-19-10-12-6v-2l-5-1-11-5v-2l-5-1-6-3-9-5-10-5-6-4-7-3-21-11-32-16 1-3 1-1 1-4h-3v2l-5 1-5-5-9-6-1-3h13l-1 2h-2l2 5 5-2 7-5h9l1 4h2v2h7l9 2-1-3-9-4z" fill="#E46734"/>
<path transform="translate(546,175)" d="m0 0 4 1 9 19 5 8 19 38 8 17 1 4-3-3-4-8-3-5 2 10h3l3 8 2 2-1 6v3l1-3 3 1 4 8v2l-6 2-1 3-7 1-1 4-4 1h-50l-4-8-12-1-6 3-4-2-4 1-2 1 2-11 3-5h2l1-4 2-3 2-9 3-6 3-5v-3l-10 21-4 9h-2l3-9 9-19 15-30 4-10 4-8 9-19z" fill="#F3A72D"/>
<path transform="translate(540,365)" d="m0 0h16l3 5 1 16 5 2 7 1 12-14 6 1 9 5 3 4-6 15 1 4 3 4 5 1 13-5 5 1 8 13-1 6-4 3h-2v2l-6 4-1 2v8l6 2 14 3 3 3 1 8-9 3-15 4-9 3-1-1-2-20-4-12-8-13-9-8-10-6-10-4-4-1h-21l-11 3-10 5-9 7-7 8-6 11-3 8-1 7v16l-3 1-15-6-17-4-1-5 2-9 6-2 16-2v-12l-5-2-9-6 1-7 4-8 3-3 10 1 9 3h5l4-5-3-9-3-5v-7l10-7h5l8 8 7 6 7-1 4-4 2-18z" fill="#234B86"/>
<path transform="translate(499,528)" d="m0 0h16l5 9 7 8 13 5h17l10-4 6-5 6-10 1-3h31l54 5 23 3 7 1 2 3 2 9-1 5-21-2-19-2-50-3h-17l-7 9-5 4-15 6-5 1h-23l-13-4-11-6-7-9h-23l-34 2-44 5-5-1 2-16 1-1 38-5 24-2z" fill="#F9F9F9"/>
<path transform="translate(469,515)" d="m0 0h51l4 5 4 6v2h40l5-11 1-1 9-1h44l31 2 35 4 2 12-1 5-38-5-45-4-31-1-1 5-7 10-9 6-6 2h-17l-13-5-9-10-3-7h-16l-50 3-39 5h-6v-14l4-2 18-2 4-1z" fill="#E03B30"/>
<path transform="translate(539,403)" d="m0 0h21l10 3 11 6 9 7 7 8 7 14 2 7 2 22-16 9-12 9-4 1 2-4 6-11 2-8v-10l-4-14-7-9-9-6-10-3h-15l-9 3-9 6-6 8-4 8-1 15 1 9 7 12 8 7 5 3 7 2h18l10-4 5-3 2 1-3 5h-2v2h-2l-2 4-9 13-7 11-4-1v-2h-2l-6-11-8-10-11-12-11-9-12-6v-2l-5-2v-18l2-10 4-9 6-10 9-9 13-8 9-3z" fill="#E98732"/>
<path transform="translate(487,656)" d="m0 0m-104-2 4 5 2 2 4-4 5 1 2 1 32 1 4-1 6-1 8-1 3 1h18l4-1 5 2 6-1-4 3-6 3-4 4-6 4-7 3-19 10-4 3-7 3-19 10-8 4h-2v2l-14 7-5 2-5 4h-3l-1-2v-9l4-21 4-24h2z" fill="#E25734"/>
<path transform="translate(598,651)" d="m0 0 6 1 4 3 10 3 2 1v-3l5-1 3 2 18 1h42l2-1 7 1 1 5h3l1-6 6-2 1 3h2l1-6 2 4 6 36 2 3 3 19-1 3h-5l-19-10-12-6v-2l-5-1-11-5v-2l-5-1-6-3-9-5-10-5-6-4-7-3-21-11v-2l-5-2z" fill="#E25734"/>
<path transform="translate(546,175)" d="m0 0 4 1 9 19 5 8 19 38 8 17 1 4-3-3-4-8-3-5 1 7-3-3v-2l-9-2-5-1-4 3-1 5h-1v-6l-3 1-1 5-4-4-1 2h-22l-5-1-2-7v-2l-3-1v5l-3 2v-5l-10 21-4 9h-2l3-9 9-19 15-30 4-10 4-8 9-19z" fill="#F3B32F"/>
<path transform="translate(119,361)" d="m0 0 19 4 44 11 2 1-2 11-2 1-41-10 35 15 5 2-2 12-42-2 39 10-2 11-2 1-64-16 4-18 1-2 15 1 22 2-27-11-7-3 2-10 2-9z" fill="#234B86"/>
<path transform="translate(907,613)" d="m0 0 5 1 30 11 27 10 1 3-8 20-5 4-2 1h-7l-20-7-20-8-7-6-1-2v-9z" fill="#234B86"/>
<path transform="translate(157,693)" d="m0 0h16l8 4 7 7 3 11-1 11-4 8-4 2v2l-6 4-4 1h-13l-10-5-7-8-2-5v-14l5-10 7-6z" fill="#E98632"/>
<path transform="translate(905,682)" d="m0 0h12l10 5 7 8 2 5v15l-4 8-8 7-7 3h-12l-10-5-7-8-2-5v-16l5-8 2-3h3v-2z" fill="#E98632"/>
<path transform="translate(923,540)" d="m0 0h8l55 9 3 1-1 13-3 11-5 5-8 1-10-2-5-4v-3l-5 4-3 1-13-1-11-4-4-5-1-2v-8z" fill="#234B86"/>
<path transform="translate(158,580)" d="m0 0h11l6 3 4 6 1 3v10l-4 6-10 5-34 9h-8l-7-4-4-8v-12l5-6 10-4z" fill="#234B86"/>
<path transform="translate(456,56)" d="m0 0h10l6 4 3 4 5 22 3 14v13l-4 7-9 4h-7l-6-3-5-6-5-21-3-14-1-10 2-7 6-5z" fill="#234B86"/>
<path transform="translate(236,173)" d="m0 0h10l6 4 28 28 3 6v9l-4 6-5 4-4 2-9-1-8-6-26-26-3-6 1-9 4-6h2v-2z" fill="#234B86"/>
<path transform="translate(981,417)" d="m0 0h5l2 9v5l-26 9 22-3h5l1 3v10l-58 8h-8l-2-12 10-4 17-6-28 3-1-13 26-4z" fill="#234B86"/>
<path transform="translate(582,49)" d="m0 0 13 1 1 1 2 21 1 3 3-23 2-1 11 2-4 38-4 29-13-2-3-28-3 24-1 3-12-1v-10z" fill="#234B86"/>
<path transform="translate(850,168)" d="m0 0h2l6 7 2 1-1 5-10 14-4 7 19-19 4 2 5 5v3l-45 45-4-1v-2l-4-2-2-5 16-24-4 2-2 4-4 2v2l-8 7-3 3h-2v-2l-3-1-4-5 2-4 4-2 2-4 4-4h2l2-4 4-4h2l2-4 4-4h2l2-4 4-4h2l1-3h2v-2l3-3h2z" fill="#234B86"/>
<path transform="translate(613,892)" d="m0 0 4 1 6 47v8l-9 1-1-1-4-31-2 33-10 1-11-35 4 31v5l-10 1-7-54 2-2 7-1h8l5 16 3 11 1-28 6-2z" fill="#234B86"/>
<path transform="translate(104,425)" d="m0 0 21 2 42 5 4 1-1 12-1 1-28 3 25 3 2 1v8l-1 4h-10l-57-7 1-11 1-3 22-2 2-1-23-3v-8z" fill="#234B86"/>
<path transform="translate(151,284)" d="m0 0 5 1 34 17 21 10 1 2-5 10-9-1-18-5h-2l24 12 1 3-5 9-9-3-34-17-17-8 1-5 4-8 11 2 18 5-25-12 1-6z" fill="#234B86"/>
<path transform="translate(691,72)" d="m0 0 9 3 4 2-1 11-3 17 10-25 2-1 10 5-3 10-14 36-6 16-9-2-4-2 2-14 2-11v-4l-10 26-5-1-7-3 1-5 11-29z" fill="#234B86"/>
<path transform="translate(108,469)" d="m0 0h16l6 3 2 2 3-3 3-1h14l15 1v13h-31v5h30v13l-1 1-52-1-14-1v-22l3-7z" fill="#234B86"/>
<path transform="translate(959,333)" d="m0 0h4l7 19v8l-4 5-12 5-9 1-4-2-3 5-9 4-17 6h-3l-3-8 1-5 25-9 1-5-28 10h-2l-4-11v-2l51-18z" fill="#234B86"/>
<path transform="translate(799,127)" d="m0 0 5 2 14 11 3 4v8l-7 11-6 5h-6l1 2v6l-16 21-1 2-5-2-6-5 4-7 10-13 2-5-1-2h-2l-13 18-4 5-5-2-6-5 2-4 8-11 14-19z" fill="#234B86"/>
<path transform="translate(926,500)" d="m0 0 34 5 32 5 1 2-1 16-1 5-7 1-60 2v-13l11-1 1-8-11-1v-9z" fill="#234B86"/>
<path transform="translate(975,378)" d="m0 0 3 1 4 16v6l-29 10-32 11-3-1-2-11 7-3h3l-1-8-12 1-2-8 1-5z" fill="#234B86"/>
<path transform="translate(917,575)" d="m0 0 6 1 44 16 13 5 1 2-5 20h-8l-54-9-5-1 1-8 2-4 11 1 1-7-9-4 1-8z" fill="#234B86"/>
<path transform="translate(923,259)" d="m0 0h3l10 17v3l-17 12-36 26-4-4-3-5v-2l7-5-1-5-1-3-8 4-4-1-5-9 16-8 36-17z" fill="#234B86"/>
<path transform="translate(960,462)" d="m0 0h21l7 3 5 7v13l-4 6-5 3-5 1h-8l-1-2v-11l10-1 1-5h-21l-20 1-2 1v4l2 1h13v-3l2-1h9l1 5v12l-39 1v-6l5-1v-2l-4-2-2-3v-11l4-5 6-3 5-1z" fill="#234B86"/>
<path transform="translate(636,57)" d="m0 0 9 1 6 3 4 5 1 3v8l-1 7-9-1-4-1v-11l-5 1-7 32v8h4l3-10v-4l-2-1 2-11 15 3 1 3-8 36-6-2v-5l-7 4-9-1-5-4-2-3v-15l7-32 5-9 4-3z" fill="#234B86"/>
<path transform="translate(182,613)" d="m0 0h3l1 5-3 4 5 2 4 5 1 9-4 6-7 5-35 13h-11l-5-3-4-6-2-9 2-6 5-5 9-5h2l4 10-1 3-7 3v4l9-1 21-8 10-3v-6l-9 2-6 2v4l-8 3h-3l-5-15 20-8z" fill="#234B86"/>
<path transform="translate(877,206)" d="m0 0h8l5 3 6 7 1 2v10l-7 8-5 4-7-9 1-3 5-4-1-4-5 1-14 11-14 12v4h5l8-7 1-5 6-5h2l7 9v2h2l-2 4-14 11-12 10-4-1-1-4 2-3-7-1-5-4-3-6 1-8 4-6h2v-2l11-9 10-8 11-8z" fill="#234B86"/>
<path transform="translate(361,87)" d="m0 0h7l6 3v2h2l5 9v3l-9 4-3-1-3-6-5-1 1 7 9 20 6 12h5l-1-7-3-6v-2l-4 1-4-8 1-3 13-6 8 16 8 17v3l-5 1-3-2-4 6-5 4-6 1-7-3-6-7-13-27-4-11v-7l3-5 6-5z" fill="#234B86"/>
<path transform="translate(943,292)" d="m0 0h2l4 9-1 4-20 9-24 11-3 1 1 5 6-1 36-17 9-3 5 11-16 8-21 10-11 5-10 1-7-4-4-7-1-2v-9l3-5 9-6 34-16z" fill="#234B86"/>
<path transform="translate(208,204)" d="m0 0h10l6 4 8 7-6 8-3 2-9-7h-4l1 5 11 9 17 14h5v-5l-4-2-7-6 4-6 3-4 4 1 12 11 2 4v7l-4 8-6 5-2 1h-9l-6-3-13-11-10-8-8-7-4-8 1-8 3-5h2l1-3z" fill="#234B86"/>
<path transform="translate(152,547)" d="m0 0h18l3 18-43 13-22 6-1-1-1-12 39-11-41 2-2-12 1-1z" fill="#234B86"/>
<path transform="translate(635,887)" d="m0 0h7l5 3 3 8v9l-2 4 4 1 4 9 1 5v8l-3 5-5 3-12 3h-4l-8-33-4-17 1-5z" fill="#234B86"/>
<path transform="translate(406,70)" d="m0 0h3l3 9v3l-11 4 3 12 9-3h4l3 8-1 4-10 3 5 14 10-3h4l3 8v4l-19 7-7 1-10-27-9-26-3-10z" fill="#234B86"/>
<path transform="translate(160,507)" d="m0 0h6l1 5 1 23-56 4h-11l-2-26 4-1h9l1 13 13-1v-13h12v12l16-1-1-13z" fill="#234B86"/>
<path transform="translate(767,107)" d="m0 0 5 2 18 11-6 11-13-6-2 5-3 6 10 6-6 11-9-5h-3l-6 10 1 3 9 5-1 4-5 8-11-6-11-7-1-3 12-20 17-28z" fill="#234B86"/>
<path transform="translate(733,89)" d="m0 0 6 2 18 9-1 5-4 7-13-5-2 6-2 5 10 5-1 5-4 7-9-4h-3l-5 10v3l11 6-5 11-6-2-19-10 2-5 10-21 8-16z" fill="#234B86"/>
<path transform="translate(544,48)" d="m0 0h27v12l-1 1h-13v13h11l2 1-1 12h-13l1 15 13 1v13l-27-1-1-3 1-42z" fill="#234B86"/>
<path transform="translate(132,324)" d="m0 0 6 1 7 3-5 13 10 3 3 1 3-10 4-1 8 3-1 7-2 7 6 1 5 2h3l5-12 11 4 1 2-9 24-6-1-55-21-2-1 1-6z" fill="#234B86"/>
<path transform="translate(330,103)" d="m0 0 4 1 5 9-10 6 1 4 4 7 5-2 6-3 6 9-1 3-7 4h-2l4 8 3 5 4-1 7-4 3 1 5 8-1 3-21 12-3-1-9-16-15-25-8-14 1-3z" fill="#234B86"/>
<path transform="translate(773,824)" d="m0 0h2l14 21 15 22v4l-6 4-4-1-15-15 2 4 7 10 3 5-1 3-7 4-4-5-19-28-8-12v-2l8-5 4 2 13 13-7-11-4-6 2-4z" fill="#234B86"/>
<path transform="translate(339,840)" d="m0 0 5 1 13 8 2 3v8l-6 10-4 3-3 1 1 5-6 11-6 10-6-2-3-2 1-5 9-15-1-4-3 3-10 17h-3l-7-4 2-5 10-18 11-19z" fill="#234B86"/>
<path transform="translate(863,737)" d="m0 0 5 1 9 6 4 4 1 5h6l18 14-1 4-4 5-4-2-15-11h-3l-1 3 5 2 11 9 3 2-1 4-4 5-4-1-13-10-28-21 2-5 9-11z" fill="#234B86"/>
<path transform="translate(546,898)" d="m0 0h19l6 46v9l-9 1-2-7v-2h-7v9h-11l2-33z" fill="#234B86"/>
<path transform="translate(427,880)" d="m0 0 10 2 8 3-1 11-8 43-3 1-8-3 2-9h-7l-3 7-9-2-1-3 16-39z" fill="#234B86"/>
<path transform="translate(295,808)" d="m0 0 5 2 8 7 2 1-1 5-28 42h-3l-6-5 4-8-5-3-5 5-4-2-5-5 29-29 7-8z" fill="#234B86"/>
<path transform="translate(673,876)" d="m0 0 5 1 13 41 2 6v5l-5 2h-5l-7-22h-4l2 10 4 12v3l-10 3-12-36-5-17 7-3h4l5 15v3l5-1-5-16v-4z" fill="#234B86"/>
<path transform="translate(701,865)" d="m0 0h2l15 28 11 20v2l-10 3-3-5v-2l-6 2 1 9-7 3h-3l-10-33-5-17 1-4z" fill="#234B86"/>
<path transform="translate(795,807)" d="m0 0 3 1v2l3 1v2l4 2 9 10 20 20-1 4-5 4h-2v-2h-2v-2h-2v-2l-5 3 1 5 2 4-8 6-8-11-12-19-10-15 1-4z" fill="#234B86"/>
<path transform="translate(369,857)" d="m0 0 5 1 13 6-8 24-11 29-9-4 1-9-5-2-4 6-5-1-4-2 1-5 8-13 9-15z" fill="#234B86"/>
<path transform="translate(269,783)" d="m0 0 7 6v3l-11 12 1 3 4-1 5-6 5-5 4 2 5 4-1 3h-2l-2 4-11 11-7 8-8 8-2 3h-2l-2 4-4-2-4-4 1-4 14-14v-4h-5l-2 4-11 11-1 2-4-2-5-6 13-13 7-8 8-8 7-8z" fill="#234B86"/>
<path transform="translate(840,762)" d="m0 0 5 3 19 14 18 13 3 2-1 4-4 4-4-1-5-2-3 3 2 4 3 4-6 7-3-1-7-8-11-12-14-15-3-4 2-4z" fill="#234B86"/>
<path transform="translate(247,759)" d="m0 0 5 5 2 4-13 12-1 2h2v2l5-3 10-9 4 2 4 4-2 4-5 5h-2v2l-8 7-20 18-5 2-6-8 13-12 5-5-4-2-3 1v2l-8 7-6 5h-2l-6-8 5-5h2v-2l11-9 8-8 8-7z" fill="#234B86"/>
<path transform="translate(506,49)" d="m0 0h5l1 5v8l-13 1 1 4v7l13-1 1 4v9l-12 1 3 25v5l-1 1-12 1-2-12-5-46v-9l13-2z" fill="#234B86"/>
<path transform="translate(467,569)" d="m0 0h13l7 2 5-1 1 1v17h-4l-5-10v-2l-4-2h-11l-5 2-1 4-2 7v15l3 12 4 2 8 1 6-1-1-14-6-2v-3h26v3l-5 2-1 14-10 4-11 2-10-1-8-3v-2l-4-2-4-5-2-6v-15l3-7 3-5 10-6z" fill="#234B86"/>
<path transform="translate(818,787)" d="m0 0h6l9 6 2 3-7 7-5-4h-4l1 5 21 21h3l-1-5-4-4v-2l-5 1-5-6 6-7 2-2h3l7 8 9 9 4 5-1 3-6-1v6l-5 6-9 1-9-6-7-7-14-16-2-4v-6l4-6 5-4z" fill="#234B86"/>
<path transform="translate(504,570)" d="m0 0h44v13l-4-1-3-5-3-2-14-1v18h10v-2h2l1-6h3v21l-3-1-3-6-10-2 1 19 3 1h8l8-2 1-4 4-6h2v15l-1 1h-46v-3l6-1v-40l-6-3z" fill="#234B86"/>
<path transform="translate(629,569)" d="m0 0h6l3 5 14 35 4 6 5 2v3h-27v-3l6-1-4-11-16-1-3 6-1 6 7 1v3h-21v-3l7-3 9-21 5-11 4-11z" fill="#234B86"/>
<path transform="translate(224,739)" d="m0 0h6l6 4 4 6v9l-5 6-8 5-6-8 5-5 3-1v-4l-5 1-6 4-18 14v3l5-1 7-5h2l5 7-1 3-10 7-2 1h-8l-7-6-2-4v-9l7-8 19-14 7-4z" fill="#234B86"/>
<path transform="translate(171,250)" d="m0 0 5 2 6 3-1 5-2 4 5 2 28 17 13 8-2 5-4 6-4-1-22-13-19-12h-3l-3 5-5-2-6-4 2-5z" fill="#234B86"/>
<path transform="translate(395,869)" d="m0 0 9 2 10 5 3 7-2 10-4 8-3 4-9 1-6-1-7 18-2 1-8-3 1-6 17-45z" fill="#234B86"/>
<path transform="translate(518,897)" d="m0 0h10l6 3 3 6v8h-7l-4-1-1-5-4-1 2 7 7 8 5 6 1 3v11l-3 8-4 3-9 1-7-3-4-6v-13h11v11h5l-1-9-5-6v-2h-2l-6-8-1-9 2-7z" fill="#234B86"/>
<path transform="translate(260,151)" d="m0 0 5 4 9 11 14 17 9 10 10-8 5 5 2 4-10 9-9 7h-3l-9-11-11-13-8-10-11-13-2-4z" fill="#234B86"/>
<path transform="translate(289,129)" d="m0 0h2l11 16 14 20 5 7v2l7-4 4-3 4 2 4 7-22 15-4-5-11-15-11-16-10-14-3-5z" fill="#234B86"/>
<path transform="translate(576,569)" d="m0 0h13l8 1h4v19l-4-2-5-10-4-3h-12v2l-3 3-2 5v19l2 6 5 5 2 1h9l7-4 4-5 3 1-1 4-6 7-7 3-9 1-12-3-8-7-3-4-1-4v-17l4-8 8-7z" fill="#234B86"/>
<path transform="translate(732,850)" d="m0 0 3 1 19 37 1 9-4 7-5 3h-10l-5-3-7-14 1-3 6-3 3 1 6 11h3l-1-6-14-27-4-9z" fill="#234B86"/>
<path transform="translate(669,66)" d="m0 0 11 2 1 3-14 46-5 16-12-3 1-7 17-56z" fill="#234B86"/>
<path transform="translate(832,153)" d="m0 0 5 2 6 5-6 8-9 10-9 11-10 11-9 11-5-2-5-5 2-5 12-13 9-11 10-11 1-2h2l2-4z" fill="#234B86"/>
<path transform="translate(453,887)" d="m0 0 23 5-1 9-5 1h-2l-9 42-5 1-6-2 1-9 7-33v-2l-5-1 1-10z" fill="#234B86"/>
<path transform="translate(316,824)" d="m0 0 4 2 15 10v4l-4 6-7-3-2 4-12 18-10 14-5-2-4-3 2-5 10-14 10-15 2-4-4-3 2-5z" fill="#234B86"/>
<path transform="translate(519,485)" d="m0 0 8 6 6 4 7 2h18l10-4 5-3 2 1-3 5h-2v2h-2l-2 4-9 13-7 11-4-1v-2h-2l-6-11-8-10-11-12-2-3h2z" fill="#EB8F31"/>
<path transform="translate(480,893)" d="m0 0 10 1-1 14-6 38-1 3-10-1 1-12 6-39z" fill="#234B86"/>
<path transform="translate(745,842)" d="m0 0 4 2 11 19 15 25-1 3-8 4-15-25-11-19-2-4z" fill="#234B86"/>
<path transform="translate(380,677)" d="m0 0h1l-1 11-2 12-2 11h3l3-3h8l2-4-2-1 2-4h1v5h7v-3l10-4 3-3 13-5-4-2-1-4 5-1 3 2 6 1-3 1-1 4-21 11-8 4h-2v2l-14 7-5 2-5 4h-3l-1-2v-9l4-21h2l1-8z" fill="#DF3230"/>
<path transform="translate(652,679)" d="m0 0h7l4 4 9 3v2l16 8 4 3h7l3-3 5 1v4h-3v4l9 4 5-1 2-6 2 3 1 3v8l-4 1-19-10-12-6v-2l-5-1-11-5v-2l-5-1-6-3-5-3v-4z" fill="#DF3130"/>
<path transform="translate(535,500)" d="m0 0 9 1h9l9-1-1 4-1 2h-2l-1 4-7 11-4-1v-2h-2l-3-6-6-9z" fill="#E46734"/>
<path transform="translate(238,186)" d="m0 0 6 1 11 11v2l4 2 10 10 1 6-4 1-8-7-20-20-1-4z" fill="#F2F2F3"/>
<path transform="translate(583,515)" d="m0 0h44l31 2 35 4v3l-27-4-29-2h-63l-3 10-4 3-39-1v-2h40l5-11 1-1z" fill="#ED9530"/>
<path transform="translate(161,593)" d="m0 0h6l1 5-7 3-30 8-5-1-1-4 9-4z" fill="#F3F4F4"/>
<path transform="translate(458,68)" d="m0 0 4 1 2 5 6 30v7l-4 1-3-5-7-35z" fill="#F4F5F5"/>
<path transform="translate(913,629)" d="m0 0 10 3 29 11 3 3-2 3-8-1-32-12-1-4z" fill="#F2F3F3"/>
<path transform="translate(517,679)" d="m0 0h9l4 5-1 6-5 4-7-1 1 6-1 5-3-1v-19l-4 1v-3z" fill="#E2E3E4"/>
<path transform="translate(519,485)" d="m0 0 8 6 6 4 7 2 18 1v1l-23 1 4 8 5 7v5l-3-3-10-14-12-13-2-3h2z" fill="#ED9330"/>
<path transform="translate(555,718)" d="m0 0h14v3h-12v7h10v3l-9 1-1 7 14-1v2l-6 2h-12v-4l1-14 1-3h-3v-2z" fill="#F1F1F2"/>
<path transform="translate(605,759)" d="m0 0h7l3 3v9l-3 4h-7l-3-5 1-9z" fill="#E1E2E3"/>
<path transform="translate(605,690)" d="m0 0 6 1 2 6-3 7-6 1-4-4v-6z" fill="#E7E8E9"/>
<path transform="translate(434,718)" d="m0 0h22v2l-10 1v20h-4v-19l-8-1z" fill="#E8E9EA"/>
<path transform="translate(920,273)" d="m0 0v3l-16 11-10 7-4-4v-2z" fill="#EDEEEF"/>
<path transform="translate(590,759)" d="m0 0h8l-1 3-6-1v4l5-1 3 2v7l-2 2h-7l-2-3v-10z" fill="#E9EAEB"/>
<path transform="translate(575,759)" d="m0 0h7l2 2 1 7-3 7h-7l-2-4 7 1 1-3h-6l-2-2v-6z" fill="#E7E8E9"/>
<path transform="translate(934,594)" d="m0 0 11 3 20 7 2 2-21-3-13-3z" fill="#EDEEEE"/>
<path transform="translate(933,554)" d="m0 0 15 2 4 1-1 5-1 1h-8l-8-2-2-2z" fill="#F3F3F4"/>
<path transform="translate(611,528)" d="m0 0h23l43 5 17 2v3l-38-5-45-4z" fill="#ED9530"/>
<path transform="translate(946,516)" d="m0 0 19 2 15 2v2h-34z" fill="#EDEEEE"/>
<path transform="translate(967,391)" d="m0 0 2 1-10 4-20 7h-3l-1-6 9-2z" fill="#EFEFF0"/>
<path transform="translate(531,727)" d="m0 0 5 1 1 1v14l-4-1-1 1h-5l-1-4 5-5 3-1-1-3h-2l-2 4h-2l1-5z" fill="#E9EAEB"/>
<path transform="translate(627,583)" d="m0 0 2 2 5 13v2h-13l1-5z" fill="#E88533"/>
<path transform="translate(483,718)" d="m0 0h2v13l2-3h4v15h-2l-1-2v-10l-4 11h-3v-12l1-11z" fill="#E6E7E8"/>
<path transform="translate(565,208)" d="m0 0 3 3 15 30 8 17 1 4-3-3-4-8-4-9-5-4-1-8-4-6-6-12z" fill="#F09F2E"/>
<path transform="translate(529,208)" d="m0 0h1l-1 7-10 21-1 4h-2l-2 6-8 17-4 9h-2l3-9 9-19 15-30z" fill="#F1A32D"/>
<path transform="translate(458,728)" d="m0 0h5l2 2-1 4-1 1h-6l1 4 5-1 3-2-1 5-3 2-6-1-2-3v-6z" fill="#A3B0C4"/>
<path transform="translate(620,681)" d="m0 0 5 1v6l-2 1-1-5-2 2-1 5h5v2l-5 1v11h-3v-10h-2v-3h2l1-7z" fill="#E7E8E9"/>
<path transform="translate(627,728)" d="m0 0h5l1 1v5l-1 1h-6l1 4 5-1 1-2h2l-2 6-7 1-3-3v-7l2-4z" fill="#EAEBEC"/>
<path transform="translate(602,728)" d="m0 0h5l1 1v5l-1 1h-6l1 4 5-1 1-2h2l-2 5-2 2-6-1-2-2v-8z" fill="#CDD3DC"/>
<path transform="translate(498,689)" d="m0 0 4 2v13h-3l-1-11-4 11h-3l1-14h3v3z" fill="#D9DADC"/>
<path transform="translate(575,689)" d="m0 0 2 1v14l-4-1-4 1-3-3v-8l1-3h3l-1 11 3-3z" fill="#E8E9EA"/>
<path transform="translate(637,728)" d="m0 0h3l1 2 1-2h5v14l-3-1v-10l-3 6-2 5h-3z" fill="#E5E6E7"/>
<path transform="translate(531,690)" d="m0 0h3v11h2l2-9 1-2h3l-1 14h-2v-2l-3 2-5-1z" fill="#E9EAEB"/>
<path transform="translate(495,728)" d="m0 0h2l1 3 2-3h4l1 2v12h-3l-1-11-4 11h-3v-8z" fill="#E7E8E9"/>
<path transform="translate(697,877)" d="m0 0 3 3 11 21v2l-5 1-4-10-5-15z" fill="#EAEAEB"/>
<path transform="translate(546,175)" d="m0 0 4 1 9 19 5 8 1 5h-3l-8-18-6-10h-5z" fill="#F09F2E"/>
<path transform="translate(373,869)" d="m0 0 1 3-8 21-3 3-3-2 2-6z" fill="#EEEEEF"/>
<path transform="translate(433,891)" d="m0 0h1l-1 10-4 18h-5l2-9z" fill="#EEEEEF"/>
<path transform="translate(841,776)" d="m0 0 4 1 13 10 6 5-2 4-4-2-13-13v-2h-2v-2z" fill="#EAEBEC"/>
<path transform="translate(638,917)" d="m0 0h5l2 3 1 5v7l-5 1-3-13z" fill="#F0F1F1"/>
<path transform="translate(555,907)" d="m0 0h1l3 22v7h-5v-14z" fill="#EDEEEF"/>
<path transform="translate(296,821)" d="m0 0v3l-7 11-6 9-4-1-1-3h2l2-4 7-7z" fill="#E3E4E5"/>
<path transform="translate(794,820)" d="m0 0 4 2 7 8 9 9-2 4h-3l-10-15-5-7z" fill="#E9EAEB"/>
<path transform="translate(559,690)" d="m0 0h6l-1 3-6 1 6 3-1 5-5 3-5-1 1-5h2l1 2 4-4h-7l1-4z" fill="#E7E8E9"/>
<path transform="translate(962,559)" d="m0 0 11 1 4 1v5l-4 1-10-2-1-1z" fill="#F1F1F2"/>
<path transform="translate(571,728)" d="m0 0h4l3 3 3-3h2l-2 4-1 4 2 3-1 4-6-5-2 4-2 1 1-4 2-5-3-4z" fill="#E5E6E7"/>
<path transform="translate(608,760)" d="m0 0 4 2 1 2v6l-2 3h-5l-1-2v-9z" fill="#234B86"/>
<path transform="translate(669,728)" d="m0 0 5 1-1 5-1 1h-6l2 4 4-1 3-2-1 5-2 2-7-1-2-4 1-6 2-1v2h5v-4z" fill="#E4E6E7"/>
<path transform="translate(555,718)" d="m0 0h14v3h-12v7h10v1h-12l-1 2v-7l1-3h-3v-2z" fill="#E5E6E8"/>
<path transform="translate(589,683)" d="m0 0 2 1-1 5h5l-1 3h-4v13h-3v-13h-3v-2l3-1z" fill="#E6E7E8"/>
<path transform="translate(654,728)" d="m0 0h6l1 4h-3v-2h-4l-1 9 6-1 3-2-1 4-4 3-6-2-2-4 1-5z" fill="#E7E8E9"/>
<path transform="translate(456,459)" d="m0 0 18 4 15 6 3 3-6-1-10-4-22-6z" fill="#D1D3D5"/>
<path transform="translate(472,728)" d="m0 0h5l2 4-3 1v-3l-4 1-1 7 4 1 5-2-2 4-5 2-5-3-1-7z" fill="#E7E8E9"/>
<path transform="translate(517,728)" d="m0 0h6l2 4-3 1v-3l-4 1-1 7 4 1 4-2-1 4-5 2-5-3-1-1v-7z" fill="#EDEEEE"/>
<path transform="translate(588,728)" d="m0 0h6l1 5h-2v-3l-4 1-1 7 4 1 4-3-1 5-5 2-5-3-1-1v-6z" fill="#E8E9EA"/>
<path transform="translate(802,145)" d="m0 0 4 1 1 4-4 6-5 1-2-4z" fill="#EDEDEE"/>
<path transform="translate(497,759)" d="m0 0h8l1 3-8-1 1 3 8 4v5l-2 2h-8l-1-4 2 1h6v-3l-7-2-1-7z" fill="#E6E7E8"/>
<path transform="translate(953,349)" d="m0 0 3 1 1 4-4 3-8 1-1-5z" fill="#EFF0F1"/>
<path transform="translate(485,680)" d="m0 0h3v23l-4 1v-19z" fill="#ECEDEE"/>
<path transform="translate(112,482)" d="m0 0h11l1 1v5h-13z" fill="#F7F7F7"/>
<path transform="translate(640,459)" d="m0 0 2 2-14 4-16 5-7 2 3-3 15-6z" fill="#D1D3D5"/>
<path transform="translate(559,509)" d="m0 0v3l-9 14-4-1v-2h-2v-5h2l1 2 3 1 2-4 5-7z" fill="#EC9230"/>
<path transform="translate(402,881)" d="m0 0 3 1v7l-3 6h-5l1-6z" fill="#EDEEEE"/>
<path transform="translate(613,719)" d="m0 0h2v23l-3 1v-23z" fill="#ECEDEE"/>
<path transform="translate(541,719)" d="m0 0h3l-1 24h-3v-18z" fill="#ECEDEE"/>
<path transform="translate(518,682)" d="m0 0h8l1 5-5 4-4 1z" fill="#234B86"/>
<path transform="translate(618,719)" d="m0 0h3v23h-4v-14z" fill="#ECECED"/>
<path transform="translate(500,627)" d="m0 0h9l3 2 2 6-2 1-5-3-5-2z" fill="#E98633"/>
<path transform="translate(633,896)" d="m0 0h5l2 7v5l-4 1-2-5z" fill="#EDEEEF"/>
<path transform="translate(522,762)" d="m0 0 4 1 1 12h-3l-1-10h-4l-1 10h-2v-12z" fill="#E2E3E4"/>
<path transform="translate(713,653)" d="m0 0h2l4 25 1 2v12h-1l-3-16-3-20z" fill="#E98633"/>
<path transform="translate(550,689)" d="m0 0 3 2-1 4h-2l-1-2-1 11-3 1v-15z" fill="#F7F7F7"/>
<path transform="translate(534,762)" d="m0 0 6 2v2l-5-1-2 1v6l5 1v-2h2l-1 4h-7l-3-5 2-6z" fill="#E4E5E6"/>
<path transform="translate(564,759)" d="m0 0h3v14h4v2h-11l1-2h4l-1-11h-3v-2z" fill="#EEEFEF"/>
<path transform="translate(606,692)" d="m0 0 3 1 1 6-2 4-4-1-1-1 1-7z" fill="#234B86"/>
<path transform="translate(344,854)" d="m0 0 4 2-2 6-2 2-5-1 2-5z" fill="#EEEFF0"/>
<path transform="translate(864,749)" d="m0 0 5 2 3 3-1 4-4-1-5-4v-3z" fill="#EAEBEC"/>
<path transform="translate(516,684)" d="m0 0h1l1 19h-4v-11z" fill="#EDEDEE"/>
<path transform="translate(410,536)" d="m0 0 3 1-2 1h-7l-3 16 3 1-5-1 2-16 1-1z" fill="#D1D3D5"/>
<path transform="translate(551,765)" d="m0 0h2v4l-7 1v2h7l-2 3h-6l-3-4 1-5 1 2h7z" fill="#E8E9EA"/>
<path transform="translate(627,728)" d="m0 0h5l1 1v5l-1 1h-6l-1-4v-2z" fill="#BDC6D4"/>
<path transform="translate(444,724)" d="m0 0h1v18l-3-1v-13z" fill="#EFEFF0"/>
<path transform="translate(288,408)" d="m0 0 7 6 11 11-1 2-7-6-5-5v-2l-4-2z" fill="#F3A72D"/>
<path transform="translate(509,727)" d="m0 0h2v15h-3v-14z" fill="#E9E9EA"/>
<path transform="translate(575,689)" d="m0 0 2 1v14h-2l-1-4h-2z" fill="#EFEFF0"/>
<path transform="translate(581,689)" d="m0 0h2v15h-3v-14z" fill="#E5E6E7"/>
<path transform="translate(637,728)" d="m0 0h2l1 5 1 4-2 5h-3z" fill="#F2F2F3"/>
<path transform="translate(539,690)" d="m0 0h3l-1 14h-2l-2-4 1-8z" fill="#F4F4F5"/>
<path transform="translate(492,690)" d="m0 0h3v12l-1 2h-3z" fill="#F0F0F1"/>
<path transform="translate(694,537)" d="m0 0 3 3 2 9-1 5-3-1-1-14-2-1z" fill="#D1D3D5"/>
<path transform="translate(592,766)" d="m0 0 4 1 1 5-1 1h-5l-1-5z" fill="#234B86"/>
<path transform="translate(495,728)" d="m0 0h2l1 11-1 3h-3v-8z" fill="#F3F3F4"/>
<path transform="translate(559,690)" d="m0 0h6l-1 3-6 1 3 2-1 1h-6l1-4z" fill="#E2E3E5"/>
<path transform="translate(547,762)" d="m0 0 5 2-1 4h-7l-1-3 1-2z" fill="#8498B5"/>
<path transform="translate(287,833)" d="m0 0 1 3-5 8-4-1 2-4z" fill="#F2F3F3"/>
<path transform="translate(519,485)" d="m0 0 8 6-2 1 1 4-7-6-2-3h2z" fill="#F2A52D"/>
<path transform="translate(272,392)" d="m0 0h2l7 8 7 6v2l-5-2-11-12z" fill="#F3A72D"/>
<path transform="translate(578,760)" d="m0 0 3 1 1 4-1 2h-5l-1-5z" fill="#234B86"/>
<path transform="translate(517,728)" d="m0 0h6l2 4-3 1v-3l-4 1-2 2h-1l-1 6h-1v-7z" fill="#DEDFE0"/>
<path transform="translate(605,690)" d="m0 0 6 1 2 6-2 5h-2l-1-9-3-1z" fill="#EEEFF0"/>
<path transform="translate(517,679)" d="m0 0h7l1 2-10 2-5 2v-3z" fill="#F2F2F3"/>
<path transform="translate(893,367)" d="m0 0 4 1v7l-2 3-3-6z" fill="#98A6BB"/>
<path transform="translate(532,736)" d="m0 0h2l-1 3 2 1-1 2-7 1-1-4 5-2z" fill="#97A7BF"/>
<path transform="translate(465,736)" d="m0 0 1 3-4 4-6-1-1-3 2-2 1 2 5-1z" fill="#E8E9EA"/>
<path transform="translate(582,485)" d="m0 0v3l-9 8v-3-2l-4 1 5-4 2-1v2l5-3z" fill="#D1D1D0"/>
<path transform="translate(489,729)" d="m0 0 2 1v13h-2l-1-2v-8z" fill="#F0F1F1"/>
<path transform="translate(384,640)" d="m0 0h3v10l-3 3z" fill="#E25735"/>
<path transform="translate(607,759)" d="m0 0h5l3 3v9l-2 1-2-10z" fill="#EDEDEE"/>
<path transform="translate(669,728)" d="m0 0 5 1-1 5-1 1-8-1 1-3 1 2h5v-4z" fill="#EFF0F0"/>
<path transform="translate(458,728)" d="m0 0h5l2 2-1 4-1 1h-6v-2h5v-3h-4z" fill="#EAEBEC"/>
<path transform="translate(588,693)" d="m0 0h2v12h-3v-9z" fill="#EBECED"/>
<path transform="translate(373,869)" d="m0 0 1 3-4 11h-3v-3z" fill="#E0E1E2"/>
<path transform="translate(602,728)" d="m0 0h5l1 1v5l-1 1h-6v-2l4-2-3-1z" fill="#ECEDEE"/>
<path transform="translate(717,686)" d="m0 0h2l1 6v8l-3-3z" fill="#E03C31"/>
<path transform="translate(620,681)" d="m0 0 5 1v6l-2 1-1-5-5 3 2-5z" fill="#E3E4E5"/>
<path transform="translate(550,689)" d="m0 0 3 2-1 4h-2l-1-2-1 11h-1v-12z" fill="#DCDEDF"/>
<path transform="translate(535,500)" d="m0 0 9 1-4 2h-2l2 6-4-4z" fill="#E25735"/>
<path transform="translate(578,642)" d="m0 0 9 3 5 3v2l-6-2-8-4z" fill="#E98633"/>
<path transform="translate(536,508)" d="m0 0 7 5 1 7-3-3-5-7z" fill="#EE982F"/>
<path transform="translate(433,891)" d="m0 0h1l-1 10-1 5-3-2 3-10z" fill="#DCDDDF"/>
<path transform="translate(408,698)" d="m0 0m-3 1 5 1-6 4h-4v-3z" fill="#E03A31"/>
<path transform="translate(500,693)" d="m0 0h2v11h-3z" fill="#EBECED"/>
<path transform="translate(592,650)" d="m0 0 9 2 5 4 2 2-5-1-11-6z" fill="#E98633"/>
<path transform="translate(573,771)" d="m0 0 7 1 4-1-2 4h-7z" fill="#E2E4E5"/>
<path transform="translate(534,762)" d="m0 0 6 2v2l-5-1-2 1-1 5h-1l-1-6z" fill="#DEDFE0"/>
<path transform="translate(677,534)" d="m0 0 17 1v3l-17-3z" fill="#EC9230"/>
<path transform="translate(599,284)" d="m0 0 3 2 1 9h-3l-1-3z" fill="#F2A52D"/>
<path transform="translate(667,672)" d="m0 0h9v4l-5-1-4-2z" fill="#DF2D30"/>
<path transform="translate(920,273)" d="m0 0v3l-9 5-1-3z" fill="#DEDFE1"/>
</svg>
